<svg width="19" height="20" viewBox="0 0 19 20" fill="none" xmlns="http://www.w3.org/2000/svg">
<path d="M12.7137 11.2071L10.6449 10L12.7136 8.79289C12.9864 8.63377 13.0808 8.27953 12.9246 8.00171C12.7684 7.72389 12.4206 7.62768 12.148 7.78683L10.0691 8.99985V6.57972C10.0691 6.25953 9.8143 6 9.5 6C9.18569 6 8.93091 6.25953 8.93091 6.57972V8.99985L6.85203 7.78683C6.57929 7.62765 6.23158 7.72389 6.07536 8.00171C5.91915 8.27953 6.01362 8.63374 6.28632 8.79289L8.35505 10L6.28635 11.2071C6.01362 11.3663 5.91918 11.7205 6.07539 11.9983C6.23161 12.2761 6.57929 12.3723 6.85206 12.2132L8.93091 11.0001V13.4203C8.93091 13.7405 9.18569 14 9.5 14C9.8143 14 10.0691 13.7405 10.0691 13.4203V11.0001L12.148 12.2132C12.4206 12.3723 12.7684 12.2761 12.9246 11.9983C13.0808 11.7205 12.9864 11.3663 12.7137 11.2071Z" fill="#7F8489"/>
<path d="M16.4343 3.43183L11.4304 0.565386C10.1145 -0.188442 8.47937 -0.188481 7.16336 0.565386L2.15945 3.43183C0.827461 4.19488 0 5.62269 0 7.15804V12.8419C0 14.3773 0.827461 15.8051 2.15949 16.5682L7.1634 19.4346C8.47941 20.1885 10.1144 20.1885 11.4304 19.4346L16.4343 16.5682C17.7662 15.8051 18.5937 14.3773 18.5937 12.8419V7.15804C18.5937 5.62265 17.7662 4.19484 16.4343 3.43183ZM17.0312 12.8419C17.0312 13.8185 16.5049 14.7266 15.6577 15.2119L10.6539 18.0784C9.81687 18.5579 8.77691 18.5579 7.93988 18.0784L2.93598 15.2119C2.08879 14.7266 1.5625 13.8185 1.5625 12.8419V7.15804C1.5625 6.18148 2.08879 5.27335 2.93602 4.78804L7.93992 1.9216C8.77687 1.44214 9.81687 1.44207 10.6539 1.9216L15.6578 4.78804C16.5049 5.27335 17.0312 6.18148 17.0312 7.15804V12.8419Z" fill="#7F8489"/>
</svg>
