<svg width="16" height="18" viewBox="0 0 16 18" fill="none" xmlns="http://www.w3.org/2000/svg">
<path d="M0.218101 9.09942C1.1646 9.91127 2.23735 10.8315 4.31238 10.8315C6.38748 10.8315 7.46029 9.91127 8.40682 9.09942C9.30195 8.33167 10.075 7.66858 11.6874 7.66858C13.2999 7.66858 14.073 8.33167 14.9681 9.09942C15.2301 9.32414 15.6247 9.29395 15.8494 9.03195C16.0741 8.76992 16.0439 8.37536 15.7819 8.15064C14.8354 7.3388 13.7625 6.41858 11.6874 6.41858C9.61235 6.41858 8.53954 7.33877 7.59301 8.15064C6.69788 8.91839 5.92482 9.58149 4.31238 9.58149C2.69998 9.58149 1.92701 8.91842 1.03194 8.15064C0.769944 7.92592 0.375382 7.95608 0.150632 8.21811C-0.0741181 8.48011 -0.0438993 8.8747 0.218101 9.09942Z" fill="#7F8489"/>
<path d="M0.218101 2.68084C1.16457 3.49272 2.23732 4.41291 4.31238 4.41291C6.38748 4.41291 7.46029 3.49272 8.40682 2.68084C9.30195 1.91309 10.075 1.25 11.6874 1.25C13.2999 1.25 14.0729 1.91306 14.9681 2.68084C15.2301 2.90563 15.6246 2.87534 15.8494 2.61331C16.0741 2.35131 16.0438 1.95669 15.7818 1.732C14.8353 0.920125 13.7625 0 11.6874 0C9.61235 0 8.53954 0.920187 7.59301 1.73206C6.69788 2.49981 5.92482 3.16291 4.31238 3.16291C2.70001 3.16291 1.92701 2.49984 1.03194 1.73206C0.769944 1.50731 0.375351 1.5375 0.150632 1.79953C-0.0741181 2.06153 -0.0438993 2.45613 0.218101 2.68084Z" fill="#7F8489"/>
<path d="M15.7819 14.57C14.8353 13.7581 13.7625 12.8379 11.6874 12.8379C9.61233 12.8379 8.53951 13.7581 7.59298 14.57C6.69786 15.3377 5.92479 16.0008 4.31236 16.0008C2.70004 16.0008 1.92701 15.3377 1.03195 14.57L1.03189 14.57C0.769887 14.3453 0.375356 14.3755 0.150606 14.6375C-0.0741129 14.8995 -0.0438941 15.294 0.218106 15.5188C1.16461 16.3306 2.23739 17.2508 4.31236 17.2508C6.38745 17.2508 7.46026 16.3306 8.40679 15.5187C9.30192 14.751 10.075 14.0879 11.6874 14.0879C13.2999 14.0879 14.073 14.751 14.968 15.5187C15.2301 15.7435 15.6246 15.7133 15.8494 15.4513C16.0741 15.1892 16.0439 14.7947 15.7819 14.57Z" fill="#7F8489"/>
</svg>
