<svg width="387" height="332" viewBox="0 0 387 332" fill="none" xmlns="http://www.w3.org/2000/svg">
<rect x="200" y="25.0004" width="3" height="15" rx="1.5" transform="rotate(-180 200 25.0004)" fill="#0E9BEF"/>
<g filter="url(#filter0_d)">
<rect x="200" y="24.6" width="2.6" height="14.6" rx="1.3" transform="rotate(-180 200 24.6)" fill="#0E9BEF"/>
</g>
<rect x="371.5" y="199.5" width="3" height="15" rx="1.5" transform="rotate(-90 371.5 199.5)" fill="#535960"/>
<rect x="371.9" y="199.5" width="2.6" height="14.6" rx="1.3" transform="rotate(-90 371.9 199.5)" fill="#15171C"/>
<rect x="10.4996" y="199.5" width="3" height="15" rx="1.5" transform="rotate(-90 10.4996 199.5)" fill="#0C95E8"/>
<g filter="url(#filter1_d)">
<rect x="10.9" y="199.5" width="2.6" height="14.6" rx="1.3" transform="rotate(-90 10.9 199.5)" fill="#0C95E8"/>
</g>
<rect x="321.889" y="76.7321" width="3" height="15" rx="1.5" transform="rotate(-135 321.889 76.7321)" fill="#0A8ADA"/>
<g filter="url(#filter2_d)">
<rect x="322.173" y="76.449" width="2.6" height="14.6" rx="1.3" transform="rotate(-135 322.173 76.449)" fill="#0A8ADA"/>
</g>
<rect x="66.6239" y="331.998" width="3" height="15" rx="1.5" transform="rotate(-135 66.6239 331.998)" fill="#016CBC"/>
<rect x="319.768" y="321.389" width="3" height="15" rx="1.5" transform="rotate(-45 319.768 321.389)" fill="#535960"/>
<rect x="320.051" y="321.673" width="2.6" height="14.6" rx="1.3" transform="rotate(-45 320.051 321.673)" fill="#15171C"/>
<rect x="64.5024" y="66.1239" width="3" height="15" rx="1.5" transform="rotate(-45 64.5024 66.1239)" fill="#11A8FD"/>
<g filter="url(#filter3_d)">
<rect x="64.7855" y="66.407" width="2.6" height="14.6" rx="1.3" transform="rotate(-45 64.7855 66.407)" fill="#11A8FD"/>
</g>
<defs>
<filter id="filter0_d" x="187.4" y="0" width="22.6" height="34.6" filterUnits="userSpaceOnUse" color-interpolation-filters="sRGB">
<feFlood flood-opacity="0" result="BackgroundImageFix"/>
<feColorMatrix in="SourceAlpha" type="matrix" values="0 0 0 0 0 0 0 0 0 0 0 0 0 0 0 0 0 0 127 0"/>
<feOffset/>
<feGaussianBlur stdDeviation="5"/>
<feColorMatrix type="matrix" values="0 0 0 0 0.0392157 0 0 0 0 0.541176 0 0 0 0 0.854902 0 0 0 1 0"/>
<feBlend mode="normal" in2="BackgroundImageFix" result="effect1_dropShadow"/>
<feBlend mode="normal" in="SourceGraphic" in2="effect1_dropShadow" result="shape"/>
</filter>
<filter id="filter1_d" x="0.900024" y="186.9" width="34.6" height="22.6" filterUnits="userSpaceOnUse" color-interpolation-filters="sRGB">
<feFlood flood-opacity="0" result="BackgroundImageFix"/>
<feColorMatrix in="SourceAlpha" type="matrix" values="0 0 0 0 0 0 0 0 0 0 0 0 0 0 0 0 0 0 127 0"/>
<feOffset/>
<feGaussianBlur stdDeviation="5"/>
<feColorMatrix type="matrix" values="0 0 0 0 0.0392157 0 0 0 0 0.541176 0 0 0 0 0.854902 0 0 0 0.25 0"/>
<feBlend mode="normal" in2="BackgroundImageFix" result="effect1_dropShadow"/>
<feBlend mode="normal" in="SourceGraphic" in2="effect1_dropShadow" result="shape"/>
</filter>
<filter id="filter2_d" x="310.334" y="54.2868" width="32.1622" height="32.1622" filterUnits="userSpaceOnUse" color-interpolation-filters="sRGB">
<feFlood flood-opacity="0" result="BackgroundImageFix"/>
<feColorMatrix in="SourceAlpha" type="matrix" values="0 0 0 0 0 0 0 0 0 0 0 0 0 0 0 0 0 0 127 0"/>
<feOffset/>
<feGaussianBlur stdDeviation="5"/>
<feColorMatrix type="matrix" values="0 0 0 0 0.0392157 0 0 0 0 0.541176 0 0 0 0 0.854902 0 0 0 1 0"/>
<feBlend mode="normal" in2="BackgroundImageFix" result="effect1_dropShadow"/>
<feBlend mode="normal" in="SourceGraphic" in2="effect1_dropShadow" result="shape"/>
</filter>
<filter id="filter3_d" x="54.7855" y="54.5685" width="32.1622" height="32.1622" filterUnits="userSpaceOnUse" color-interpolation-filters="sRGB">
<feFlood flood-opacity="0" result="BackgroundImageFix"/>
<feColorMatrix in="SourceAlpha" type="matrix" values="0 0 0 0 0 0 0 0 0 0 0 0 0 0 0 0 0 0 127 0"/>
<feOffset/>
<feGaussianBlur stdDeviation="5"/>
<feColorMatrix type="matrix" values="0 0 0 0 0.0392157 0 0 0 0 0.541176 0 0 0 0 0.854902 0 0 0 0.75 0"/>
<feBlend mode="normal" in2="BackgroundImageFix" result="effect1_dropShadow"/>
<feBlend mode="normal" in="SourceGraphic" in2="effect1_dropShadow" result="shape"/>
</filter>
</defs>
</svg>
