<svg width="18" height="21" viewBox="0 0 18 21" fill="none" xmlns="http://www.w3.org/2000/svg">
<path d="M6.25 1.5625H10.9375C11.369 1.5625 11.7188 1.21273 11.7188 0.78125C11.7188 0.349766 11.369 0 10.9375 0H6.25C5.81852 0 5.46875 0.349766 5.46875 0.78125C5.46875 1.21273 5.81852 1.5625 6.25 1.5625Z" fill="#7F8489"/>
<path d="M8.59375 3.8125C3.84359 3.8125 0 7.65676 0 12.4062C0 17.1563 3.84414 21 8.59375 21C13.3439 21 17.1875 17.1557 17.1875 12.4062C17.1875 7.65609 13.3432 3.8125 8.59375 3.8125ZM8.59375 19.4375C4.71672 19.4375 1.5625 16.2833 1.5625 12.4062C1.5625 8.52922 4.71672 5.375 8.59375 5.375C12.4708 5.375 15.625 8.52922 15.625 12.4062C15.625 16.2833 12.4708 19.4375 8.59375 19.4375Z" fill="#7F8489"/>
<path d="M8.59375 8.71875C8.16227 8.71875 7.8125 9.06852 7.8125 9.5V13.4062C7.8125 13.8377 8.16227 14.1875 8.59375 14.1875C9.02523 14.1875 9.375 13.8377 9.375 13.4062V9.5C9.375 9.06852 9.02523 8.71875 8.59375 8.71875Z" fill="#7F8489" stroke="#7F8489" stroke-width="0.5"/>
</svg>
